<svg width="1208" height="232" viewBox="0 0 1208 232" fill="none" xmlns="http://www.w3.org/2000/svg">
<path d="M375.805 175.05C371.655 175.05 367.805 174.4 364.255 173.1C360.705 171.75 357.63 169.85 355.03 167.4C352.48 164.95 350.48 162.075 349.03 158.775C347.58 155.425 346.855 151.75 346.855 147.75C346.855 143.75 347.58 140.1 349.03 136.8C350.48 133.45 352.505 130.55 355.105 128.1C357.705 125.65 360.78 123.775 364.33 122.475C367.93 121.125 371.855 120.45 376.105 120.45C381.055 120.45 385.48 121.275 389.38 122.925C393.28 124.575 396.505 126.95 399.055 130.05L389.605 138.6C387.805 136.65 385.855 135.2 383.755 134.25C381.705 133.25 379.405 132.75 376.855 132.75C374.605 132.75 372.555 133.1 370.705 133.8C368.855 134.5 367.28 135.525 365.98 136.875C364.68 138.175 363.655 139.75 362.905 141.6C362.205 143.4 361.855 145.45 361.855 147.75C361.855 149.95 362.205 151.975 362.905 153.825C363.655 155.675 364.68 157.275 365.98 158.625C367.28 159.925 368.83 160.95 370.63 161.7C372.48 162.4 374.505 162.75 376.705 162.75C378.905 162.75 381.055 162.4 383.155 161.7C385.255 160.95 387.38 159.7 389.53 157.95L397.855 168.375C394.855 170.525 391.38 172.175 387.43 173.325C383.48 174.475 379.605 175.05 375.805 175.05ZM384.73 166.425V146.625H397.855V168.375L384.73 166.425ZM427.895 174.675C423.095 174.675 418.895 173.775 415.295 171.975C411.745 170.125 408.97 167.625 406.97 164.475C405.02 161.275 404.045 157.65 404.045 153.6C404.045 149.55 404.995 145.95 406.895 142.8C408.845 139.6 411.52 137.125 414.92 135.375C418.32 133.575 422.145 132.675 426.395 132.675C430.395 132.675 434.045 133.5 437.345 135.15C440.645 136.75 443.27 139.125 445.22 142.275C447.17 145.425 448.145 149.25 448.145 153.75C448.145 154.25 448.12 154.825 448.07 155.475C448.02 156.125 447.97 156.725 447.92 157.275H415.745V149.775H440.345L434.945 151.875C434.995 150.025 434.645 148.425 433.895 147.075C433.195 145.725 432.195 144.675 430.895 143.925C429.645 143.175 428.17 142.8 426.47 142.8C424.77 142.8 423.27 143.175 421.97 143.925C420.72 144.675 419.745 145.75 419.045 147.15C418.345 148.5 417.995 150.1 417.995 151.95V154.125C417.995 156.125 418.395 157.85 419.195 159.3C420.045 160.75 421.245 161.875 422.795 162.675C424.345 163.425 426.195 163.8 428.345 163.8C430.345 163.8 432.045 163.525 433.445 162.975C434.895 162.375 436.32 161.475 437.72 160.275L445.22 168.075C443.27 170.225 440.87 171.875 438.02 173.025C435.17 174.125 431.795 174.675 427.895 174.675ZM472.865 174.675C467.665 174.675 463.615 173.4 460.715 170.85C457.815 168.25 456.365 164.35 456.365 159.15V124.275H470.615V159C470.615 160.45 471.015 161.6 471.815 162.45C472.615 163.25 473.64 163.65 474.89 163.65C476.59 163.65 478.04 163.225 479.24 162.375L482.765 172.35C481.565 173.15 480.09 173.725 478.34 174.075C476.59 174.475 474.765 174.675 472.865 174.675ZM450.44 145.5V134.85H479.915V145.5H450.44ZM510.761 174V121.5H522.986L551.936 156.45H546.161V121.5H560.711V174H548.486L519.536 139.05H525.311V174H510.761ZM591.811 174.675C587.011 174.675 582.811 173.775 579.211 171.975C575.661 170.125 572.886 167.625 570.886 164.475C568.936 161.275 567.961 157.65 567.961 153.6C567.961 149.55 568.911 145.95 570.811 142.8C572.761 139.6 575.436 137.125 578.836 135.375C582.236 133.575 586.061 132.675 590.311 132.675C594.311 132.675 597.961 133.5 601.261 135.15C604.561 136.75 607.186 139.125 609.136 142.275C611.086 145.425 612.061 149.25 612.061 153.75C612.061 154.25 612.036 154.825 611.986 155.475C611.936 156.125 611.886 156.725 611.836 157.275H579.661V149.775H604.261L598.861 151.875C598.911 150.025 598.561 148.425 597.811 147.075C597.111 145.725 596.111 144.675 594.811 143.925C593.561 143.175 592.086 142.8 590.386 142.8C588.686 142.8 587.186 143.175 585.886 143.925C584.636 144.675 583.661 145.75 582.961 147.15C582.261 148.5 581.911 150.1 581.911 151.95V154.125C581.911 156.125 582.311 157.85 583.111 159.3C583.961 160.75 585.161 161.875 586.711 162.675C588.261 163.425 590.111 163.8 592.261 163.8C594.261 163.8 595.961 163.525 597.361 162.975C598.811 162.375 600.236 161.475 601.636 160.275L609.136 168.075C607.186 170.225 604.786 171.875 601.936 173.025C599.086 174.125 595.711 174.675 591.811 174.675ZM627.574 174L613.099 133.35H626.599L638.074 167.325H631.624L643.549 133.35H655.699L667.174 167.325H660.874L672.724 133.35H685.249L670.774 174H656.974L647.224 145.875H651.424L641.374 174H627.574ZM738.579 175.05C734.379 175.05 730.504 174.375 726.954 173.025C723.404 171.675 720.304 169.775 717.654 167.325C715.054 164.825 713.029 161.925 711.579 158.625C710.129 155.325 709.404 151.7 709.404 147.75C709.404 143.8 710.129 140.175 711.579 136.875C713.029 133.575 715.054 130.7 717.654 128.25C720.304 125.75 723.404 123.825 726.954 122.475C730.504 121.125 734.379 120.45 738.579 120.45C742.829 120.45 746.704 121.125 750.204 122.475C753.754 123.825 756.829 125.75 759.429 128.25C762.029 130.7 764.054 133.575 765.504 136.875C767.004 140.175 767.754 143.8 767.754 147.75C767.754 151.7 767.004 155.35 765.504 158.7C764.054 162 762.029 164.875 759.429 167.325C756.829 169.775 753.754 171.675 750.204 173.025C746.704 174.375 742.829 175.05 738.579 175.05ZM738.579 162.75C740.579 162.75 742.429 162.4 744.129 161.7C745.879 161 747.379 160 748.629 158.7C749.929 157.35 750.929 155.75 751.629 153.9C752.379 152.05 752.754 150 752.754 147.75C752.754 145.45 752.379 143.4 751.629 141.6C750.929 139.75 749.929 138.175 748.629 136.875C747.379 135.525 745.879 134.5 744.129 133.8C742.429 133.1 740.579 132.75 738.579 132.75C736.579 132.75 734.704 133.1 732.954 133.8C731.254 134.5 729.754 135.525 728.454 136.875C727.204 138.175 726.204 139.75 725.454 141.6C724.754 143.4 724.404 145.45 724.404 147.75C724.404 150 724.754 152.05 725.454 153.9C726.204 155.75 727.204 157.35 728.454 158.7C729.754 160 731.254 161 732.954 161.7C734.704 162.4 736.579 162.75 738.579 162.75ZM801.332 132.675C804.482 132.675 807.332 133.325 809.882 134.625C812.432 135.875 814.432 137.825 815.882 140.475C817.382 143.125 818.132 146.55 818.132 150.75V174H803.882V153.075C803.882 150.175 803.282 148.075 802.082 146.775C800.932 145.425 799.307 144.75 797.207 144.75C795.707 144.75 794.332 145.1 793.082 145.8C791.832 146.45 790.857 147.475 790.157 148.875C789.457 150.275 789.107 152.1 789.107 154.35V174H774.857V133.35H788.432V144.9L785.807 141.525C787.357 138.575 789.482 136.375 792.182 134.925C794.882 133.425 797.932 132.675 801.332 132.675ZM848.891 174.675C844.091 174.675 839.891 173.775 836.291 171.975C832.741 170.125 829.966 167.625 827.966 164.475C826.016 161.275 825.041 157.65 825.041 153.6C825.041 149.55 825.991 145.95 827.891 142.8C829.841 139.6 832.516 137.125 835.916 135.375C839.316 133.575 843.141 132.675 847.391 132.675C851.391 132.675 855.041 133.5 858.341 135.15C861.641 136.75 864.266 139.125 866.216 142.275C868.166 145.425 869.141 149.25 869.141 153.75C869.141 154.25 869.116 154.825 869.066 155.475C869.016 156.125 868.966 156.725 868.916 157.275H836.741V149.775H861.341L855.941 151.875C855.991 150.025 855.641 148.425 854.891 147.075C854.191 145.725 853.191 144.675 851.891 143.925C850.641 143.175 849.166 142.8 847.466 142.8C845.766 142.8 844.266 143.175 842.966 143.925C841.716 144.675 840.741 145.75 840.041 147.15C839.341 148.5 838.991 150.1 838.991 151.95V154.125C838.991 156.125 839.391 157.85 840.191 159.3C841.041 160.75 842.241 161.875 843.791 162.675C845.341 163.425 847.191 163.8 849.341 163.8C851.341 163.8 853.041 163.525 854.441 162.975C855.891 162.375 857.316 161.475 858.716 160.275L866.216 168.075C864.266 170.225 861.866 171.875 859.016 173.025C856.166 174.125 852.791 174.675 848.891 174.675ZM876.761 154.875L873.986 121.5H890.936L888.086 154.875H876.761ZM882.461 174.675C879.961 174.675 877.911 173.9 876.311 172.35C874.711 170.8 873.911 168.95 873.911 166.8C873.911 164.6 874.711 162.775 876.311 161.325C877.911 159.825 879.961 159.075 882.461 159.075C884.961 159.075 886.986 159.825 888.536 161.325C890.136 162.775 890.936 164.6 890.936 166.8C890.936 168.95 890.136 170.8 888.536 172.35C886.986 173.9 884.961 174.675 882.461 174.675Z" fill="white"/>
<g style="mix-blend-mode:plus-lighter" opacity="0.4">
<path d="M43.2086 145L89.5586 40H118.809L165.309 145H134.409L98.1086 54.55H109.809L73.5086 145H43.2086ZM68.5586 124.6L76.2086 102.7H127.509L135.159 124.6H68.5586ZM224.614 147.1C216.314 147.1 208.614 145.8 201.514 143.2C194.514 140.5 188.414 136.7 183.214 131.8C178.114 126.9 174.114 121.15 171.214 114.55C168.314 107.85 166.864 100.5 166.864 92.5C166.864 84.5 168.314 77.2 171.214 70.6C174.114 63.9 178.114 58.1 183.214 53.2C188.414 48.3 194.514 44.55 201.514 41.95C208.614 39.25 216.314 37.9 224.614 37.9C234.314 37.9 242.964 39.6 250.564 43C258.264 46.4 264.664 51.3 269.764 57.7L250.864 74.8C247.464 70.8 243.714 67.75 239.614 65.65C235.614 63.55 231.114 62.5 226.114 62.5C221.814 62.5 217.864 63.2 214.264 64.6C210.664 66 207.564 68.05 204.964 70.75C202.464 73.35 200.464 76.5 198.964 80.2C197.564 83.9 196.864 88 196.864 92.5C196.864 97 197.564 101.1 198.964 104.8C200.464 108.5 202.464 111.7 204.964 114.4C207.564 117 210.664 119 214.264 120.4C217.864 121.8 221.814 122.5 226.114 122.5C231.114 122.5 235.614 121.45 239.614 119.35C243.714 117.25 247.464 114.2 250.864 110.2L269.764 127.3C264.664 133.6 258.264 138.5 250.564 142C242.964 145.4 234.314 147.1 224.614 147.1ZM333.159 147.1C324.859 147.1 317.159 145.8 310.059 143.2C303.059 140.5 296.959 136.7 291.759 131.8C286.659 126.9 282.659 121.15 279.759 114.55C276.859 107.85 275.409 100.5 275.409 92.5C275.409 84.5 276.859 77.2 279.759 70.6C282.659 63.9 286.659 58.1 291.759 53.2C296.959 48.3 303.059 44.55 310.059 41.95C317.159 39.25 324.859 37.9 333.159 37.9C342.859 37.9 351.509 39.6 359.109 43C366.809 46.4 373.209 51.3 378.309 57.7L359.409 74.8C356.009 70.8 352.259 67.75 348.159 65.65C344.159 63.55 339.659 62.5 334.659 62.5C330.359 62.5 326.409 63.2 322.809 64.6C319.209 66 316.109 68.05 313.509 70.75C311.009 73.35 309.009 76.5 307.509 80.2C306.109 83.9 305.409 88 305.409 92.5C305.409 97 306.109 101.1 307.509 104.8C309.009 108.5 311.009 111.7 313.509 114.4C316.109 117 319.209 119 322.809 120.4C326.409 121.8 330.359 122.5 334.659 122.5C339.659 122.5 344.159 121.45 348.159 119.35C352.259 117.25 356.009 114.2 359.409 110.2L378.309 127.3C373.209 133.6 366.809 138.5 359.109 142C351.509 145.4 342.859 147.1 333.159 147.1ZM418.851 80.65H467.601V102.85H418.851V80.65ZM420.951 122.05H475.851V145H391.551V40H473.901V62.95H420.951V122.05ZM529.232 147.1C520.632 147.1 512.332 146.05 504.332 143.95C496.432 141.75 489.982 138.95 484.982 135.55L494.732 113.65C499.432 116.65 504.832 119.15 510.932 121.15C517.132 123.05 523.282 124 529.382 124C533.482 124 536.782 123.65 539.282 122.95C541.782 122.15 543.582 121.15 544.682 119.95C545.882 118.65 546.482 117.15 546.482 115.45C546.482 113.05 545.382 111.15 543.182 109.75C540.982 108.35 538.132 107.2 534.632 106.3C531.132 105.4 527.232 104.5 522.932 103.6C518.732 102.7 514.482 101.55 510.182 100.15C505.982 98.75 502.132 96.95 498.632 94.75C495.132 92.45 492.282 89.5 490.082 85.9C487.882 82.2 486.782 77.55 486.782 71.95C486.782 65.65 488.482 59.95 491.882 54.85C495.382 49.75 500.582 45.65 507.482 42.55C514.382 39.45 522.982 37.9 533.282 37.9C540.182 37.9 546.932 38.7 553.532 40.3C560.232 41.8 566.182 44.05 571.382 47.05L562.232 69.1C557.232 66.4 552.282 64.4 547.382 63.1C542.482 61.7 537.732 61 533.132 61C529.032 61 525.732 61.45 523.232 62.35C520.732 63.15 518.932 64.25 517.832 65.65C516.732 67.05 516.182 68.65 516.182 70.45C516.182 72.75 517.232 74.6 519.332 76C521.532 77.3 524.382 78.4 527.882 79.3C531.482 80.1 535.382 80.95 539.582 81.85C543.882 82.75 548.132 83.9 552.332 85.3C556.632 86.6 560.532 88.4 564.032 90.7C567.532 92.9 570.332 95.85 572.432 99.55C574.632 103.15 575.732 107.7 575.732 113.2C575.732 119.3 573.982 124.95 570.482 130.15C567.082 135.25 561.932 139.35 555.032 142.45C548.232 145.55 539.632 147.1 529.232 147.1ZM626.351 147.1C617.751 147.1 609.451 146.05 601.451 143.95C593.551 141.75 587.101 138.95 582.101 135.55L591.851 113.65C596.551 116.65 601.951 119.15 608.051 121.15C614.251 123.05 620.401 124 626.501 124C630.601 124 633.901 123.65 636.401 122.95C638.901 122.15 640.701 121.15 641.801 119.95C643.001 118.65 643.601 117.15 643.601 115.45C643.601 113.05 642.501 111.15 640.301 109.75C638.101 108.35 635.251 107.2 631.751 106.3C628.251 105.4 624.351 104.5 620.051 103.6C615.851 102.7 611.601 101.55 607.301 100.15C603.101 98.75 599.251 96.95 595.751 94.75C592.251 92.45 589.401 89.5 587.201 85.9C585.001 82.2 583.901 77.55 583.901 71.95C583.901 65.65 585.601 59.95 589.001 54.85C592.501 49.75 597.701 45.65 604.601 42.55C611.501 39.45 620.101 37.9 630.401 37.9C637.301 37.9 644.051 38.7 650.651 40.3C657.351 41.8 663.301 44.05 668.501 47.05L659.351 69.1C654.351 66.4 649.401 64.4 644.501 63.1C639.601 61.7 634.851 61 630.251 61C626.151 61 622.851 61.45 620.351 62.35C617.851 63.15 616.051 64.25 614.951 65.65C613.851 67.05 613.301 68.65 613.301 70.45C613.301 72.75 614.351 74.6 616.451 76C618.651 77.3 621.501 78.4 625.001 79.3C628.601 80.1 632.501 80.95 636.701 81.85C641.001 82.75 645.251 83.9 649.451 85.3C653.751 86.6 657.651 88.4 661.151 90.7C664.651 92.9 667.451 95.85 669.551 99.55C671.751 103.15 672.851 107.7 672.851 113.2C672.851 119.3 671.101 124.95 667.601 130.15C664.201 135.25 659.051 139.35 652.151 142.45C645.351 145.55 636.751 147.1 626.351 147.1ZM739.52 147.1C731.12 147.1 723.37 145.75 716.27 143.05C709.17 140.35 702.97 136.55 697.67 131.65C692.47 126.65 688.42 120.85 685.52 114.25C682.62 107.65 681.17 100.4 681.17 92.5C681.17 84.6 682.62 77.35 685.52 70.75C688.42 64.15 692.47 58.4 697.67 53.5C702.97 48.5 709.17 44.65 716.27 41.95C723.37 39.25 731.12 37.9 739.52 37.9C748.02 37.9 755.77 39.25 762.77 41.95C769.87 44.65 776.02 48.5 781.22 53.5C786.42 58.4 790.47 64.15 793.37 70.75C796.37 77.35 797.87 84.6 797.87 92.5C797.87 100.4 796.37 107.7 793.37 114.4C790.47 121 786.42 126.75 781.22 131.65C776.02 136.55 769.87 140.35 762.77 143.05C755.77 145.75 748.02 147.1 739.52 147.1ZM739.52 122.5C743.52 122.5 747.22 121.8 750.62 120.4C754.12 119 757.12 117 759.62 114.4C762.22 111.7 764.22 108.5 765.62 104.8C767.12 101.1 767.87 97 767.87 92.5C767.87 87.9 767.12 83.8 765.62 80.2C764.22 76.5 762.22 73.35 759.62 70.75C757.12 68.05 754.12 66 750.62 64.6C747.22 63.2 743.52 62.5 739.52 62.5C735.52 62.5 731.77 63.2 728.27 64.6C724.87 66 721.87 68.05 719.27 70.75C716.77 73.35 714.77 76.5 713.27 80.2C711.87 83.8 711.17 87.9 711.17 92.5C711.17 97 711.87 101.1 713.27 104.8C714.77 108.5 716.77 111.7 719.27 114.4C721.87 117 724.87 119 728.27 120.4C731.77 121.8 735.52 122.5 739.52 122.5ZM813.426 145V40H861.426C871.026 40 879.276 41.55 886.176 44.65C893.176 47.75 898.576 52.25 902.376 58.15C906.176 63.95 908.076 70.85 908.076 78.85C908.076 86.75 906.176 93.6 902.376 99.4C898.576 105.1 893.176 109.5 886.176 112.6C879.276 115.6 871.026 117.1 861.426 117.1H829.926L843.126 104.65V145H813.426ZM878.376 145L852.276 106.75H883.926L910.176 145H878.376ZM843.126 107.8L829.926 94.15H859.626C865.826 94.15 870.426 92.8 873.426 90.1C876.526 87.4 878.076 83.65 878.076 78.85C878.076 73.95 876.526 70.15 873.426 67.45C870.426 64.75 865.826 63.4 859.626 63.4H829.926L843.126 49.75V107.8ZM924.461 145V40H954.161V145H924.461ZM1002.59 80.65H1051.34V102.85H1002.59V80.65ZM1004.69 122.05H1059.59V145H975.291V40H1057.64V62.95H1004.69V122.05ZM1112.97 147.1C1104.37 147.1 1096.07 146.05 1088.07 143.95C1080.17 141.75 1073.72 138.95 1068.72 135.55L1078.47 113.65C1083.17 116.65 1088.57 119.15 1094.67 121.15C1100.87 123.05 1107.02 124 1113.12 124C1117.22 124 1120.52 123.65 1123.02 122.95C1125.52 122.15 1127.32 121.15 1128.42 119.95C1129.62 118.65 1130.22 117.15 1130.22 115.45C1130.22 113.05 1129.12 111.15 1126.92 109.75C1124.72 108.35 1121.87 107.2 1118.37 106.3C1114.87 105.4 1110.97 104.5 1106.67 103.6C1102.47 102.7 1098.22 101.55 1093.92 100.15C1089.72 98.75 1085.87 96.95 1082.37 94.75C1078.87 92.45 1076.02 89.5 1073.82 85.9C1071.62 82.2 1070.52 77.55 1070.52 71.95C1070.52 65.65 1072.22 59.95 1075.62 54.85C1079.12 49.75 1084.32 45.65 1091.22 42.55C1098.12 39.45 1106.72 37.9 1117.02 37.9C1123.92 37.9 1130.67 38.7 1137.27 40.3C1143.97 41.8 1149.92 44.05 1155.12 47.05L1145.97 69.1C1140.97 66.4 1136.02 64.4 1131.12 63.1C1126.22 61.7 1121.47 61 1116.87 61C1112.77 61 1109.47 61.45 1106.97 62.35C1104.47 63.15 1102.67 64.25 1101.57 65.65C1100.47 67.05 1099.92 68.65 1099.92 70.45C1099.92 72.75 1100.97 74.6 1103.07 76C1105.27 77.3 1108.12 78.4 1111.62 79.3C1115.22 80.1 1119.12 80.95 1123.32 81.85C1127.62 82.75 1131.87 83.9 1136.07 85.3C1140.37 86.6 1144.27 88.4 1147.77 90.7C1151.27 92.9 1154.07 95.85 1156.17 99.55C1158.37 103.15 1159.47 107.7 1159.47 113.2C1159.47 119.3 1157.72 124.95 1154.22 130.15C1150.82 135.25 1145.67 139.35 1138.77 142.45C1131.97 145.55 1123.37 147.1 1112.97 147.1Z" fill="url(#paint0_linear_2438_192)"/>
</g>
<defs>
<linearGradient id="paint0_linear_2438_192" x1="-288.975" y1="48.6404" x2="-270.195" y2="281.841" gradientUnits="userSpaceOnUse">
<stop stop-color="#B2EBF2"/>
<stop offset="0.653477" stop-color="#D1C4E9"/>
<stop offset="1" stop-color="#F8BBD0"/>
</linearGradient>
</defs>
</svg>
