<svg width="939" height="236" viewBox="0 0 939 236" fill="none" xmlns="http://www.w3.org/2000/svg">
<g opacity="0.398507" filter="url(#filter0_b_2438_191)">
<path d="M50.857 100.2H115.857V129.8H50.857V100.2ZM53.657 155.4H126.857V186H14.457V46H124.257V76.6H53.657V155.4ZM133.26 186L194.46 101L194.26 129.2L135.46 46H180.06L217.66 100.2L198.66 100.4L235.66 46H278.46L219.66 127.6V99.6L281.66 186H236.06L197.86 129H216.06L178.46 186H133.26ZM290.824 186V46H354.824C367.624 46 378.624 48.0667 387.824 52.2C397.158 56.3333 404.358 62.3333 409.424 70.2C414.491 77.9333 417.024 87.1333 417.024 97.8C417.024 108.333 414.491 117.467 409.424 125.2C404.358 132.933 397.158 138.933 387.824 143.2C378.624 147.333 367.624 149.4 354.824 149.4H312.824L330.424 132.2V186H290.824ZM330.424 136.4L312.824 118.2H352.424C360.691 118.2 366.824 116.4 370.824 112.8C374.958 109.2 377.024 104.2 377.024 97.8C377.024 91.2667 374.958 86.2 370.824 82.6C366.824 79 360.691 77.2 352.424 77.2H312.824L330.424 59V136.4ZM436.485 186V37.6H474.485V186H436.485ZM571.58 188.8C560.38 188.8 550.047 187 540.58 183.4C531.114 179.8 522.847 174.733 515.78 168.2C508.847 161.533 503.447 153.8 499.58 145C495.714 136.2 493.78 126.533 493.78 116C493.78 105.467 495.714 95.8 499.58 87C503.447 78.2 508.847 70.5333 515.78 64C522.847 57.3333 531.114 52.2 540.58 48.6C550.047 45 560.38 43.2 571.58 43.2C582.914 43.2 593.247 45 602.58 48.6C612.047 52.2 620.247 57.3333 627.18 64C634.114 70.5333 639.514 78.2 643.38 87C647.38 95.8 649.38 105.467 649.38 116C649.38 126.533 647.38 136.267 643.38 145.2C639.514 154 634.114 161.667 627.18 168.2C620.247 174.733 612.047 179.8 602.58 183.4C593.247 187 582.914 188.8 571.58 188.8ZM571.58 156C576.914 156 581.847 155.067 586.38 153.2C591.047 151.333 595.047 148.667 598.38 145.2C601.847 141.6 604.514 137.333 606.38 132.4C608.38 127.467 609.38 122 609.38 116C609.38 109.867 608.38 104.4 606.38 99.6C604.514 94.6667 601.847 90.4667 598.38 87C595.047 83.4 591.047 80.6667 586.38 78.8C581.847 76.9333 576.914 76 571.58 76C566.247 76 561.247 76.9333 556.58 78.8C552.047 80.6667 548.047 83.4 544.58 87C541.247 90.4667 538.58 94.6667 536.58 99.6C534.714 104.4 533.78 109.867 533.78 116C533.78 122 534.714 127.467 536.58 132.4C538.58 137.333 541.247 141.6 544.58 145.2C548.047 148.667 552.047 151.333 556.58 153.2C561.247 155.067 566.247 156 571.58 156ZM670.121 186V46H734.121C746.921 46 757.921 48.0667 767.121 52.2C776.454 56.3333 783.654 62.3333 788.721 70.2C793.788 77.9333 796.321 87.1333 796.321 97.8C796.321 108.333 793.788 117.467 788.721 125.2C783.654 132.8 776.454 138.667 767.121 142.8C757.921 146.8 746.921 148.8 734.121 148.8H692.121L709.721 132.2V186H670.121ZM756.721 186L721.921 135H764.121L799.121 186H756.721ZM709.721 136.4L692.121 118.2H731.721C739.988 118.2 746.121 116.4 750.121 112.8C754.254 109.2 756.321 104.2 756.321 97.8C756.321 91.2667 754.254 86.2 750.121 82.6C746.121 79 739.988 77.2 731.721 77.2H692.121L709.721 59V136.4ZM854.568 100.2H919.568V129.8H854.568V100.2ZM857.368 155.4H930.568V186H818.168V46H927.968V76.6H857.368V155.4Z" fill="url(#paint0_linear_2438_191)"/>
</g>
<g filter="url(#filter1_d_2438_191)">
<path d="M98.8238 209V164.2H121.736C127.624 164.2 132.018 165.288 134.92 167.464C137.821 169.597 139.272 172.413 139.272 175.912C139.272 178.216 138.653 180.243 137.416 181.992C136.221 183.699 134.514 185.064 132.296 186.088C130.12 187.069 127.517 187.56 124.488 187.56L125.768 184.488C128.925 184.488 131.677 184.979 134.024 185.96C136.37 186.899 138.184 188.285 139.464 190.12C140.786 191.912 141.448 194.109 141.448 196.712C141.448 200.595 139.869 203.624 136.712 205.8C133.597 207.933 129.032 209 123.016 209H98.8238ZM111.368 199.848H121.992C124.168 199.848 125.81 199.485 126.92 198.76C128.072 197.992 128.648 196.84 128.648 195.304C128.648 193.768 128.072 192.637 126.92 191.912C125.81 191.144 124.168 190.76 121.992 190.76H110.472V181.992H120.072C122.205 181.992 123.805 181.629 124.872 180.904C125.938 180.179 126.472 179.091 126.472 177.64C126.472 176.189 125.938 175.123 124.872 174.44C123.805 173.715 122.205 173.352 120.072 173.352H111.368V199.848ZM147.435 209V174.312H159.019V184.424L157.291 181.544C158.315 178.941 159.979 177 162.283 175.72C164.587 174.397 167.382 173.736 170.667 173.736V184.68C170.113 184.595 169.622 184.552 169.195 184.552C168.811 184.509 168.385 184.488 167.915 184.488C165.441 184.488 163.435 185.171 161.899 186.536C160.363 187.859 159.595 190.035 159.595 193.064V209H147.435ZM192.781 209.576C188.983 209.576 185.613 208.808 182.669 207.272C179.725 205.736 177.399 203.624 175.693 200.936C174.029 198.205 173.197 195.091 173.197 191.592C173.197 188.093 174.029 185 175.693 182.312C177.399 179.624 179.725 177.533 182.669 176.04C185.613 174.504 188.983 173.736 192.781 173.736C196.578 173.736 199.949 174.504 202.893 176.04C205.879 177.533 208.205 179.624 209.869 182.312C211.533 185 212.365 188.093 212.365 191.592C212.365 195.091 211.533 198.205 209.869 200.936C208.205 203.624 205.879 205.736 202.893 207.272C199.949 208.808 196.578 209.576 192.781 209.576ZM192.781 199.912C194.189 199.912 195.426 199.592 196.493 198.952C197.602 198.312 198.477 197.373 199.117 196.136C199.757 194.856 200.077 193.341 200.077 191.592C200.077 189.843 199.757 188.371 199.117 187.176C198.477 185.939 197.602 185 196.493 184.36C195.426 183.72 194.189 183.4 192.781 183.4C191.415 183.4 190.178 183.72 189.069 184.36C188.002 185 187.127 185.939 186.445 187.176C185.805 188.371 185.485 189.843 185.485 191.592C185.485 193.341 185.805 194.856 186.445 196.136C187.127 197.373 188.002 198.312 189.069 198.952C190.178 199.592 191.415 199.912 192.781 199.912ZM225.316 209L212.964 174.312H224.484L234.276 203.304H228.772L238.948 174.312H249.316L259.108 203.304H253.732L263.844 174.312H274.532L262.18 209H250.404L242.084 185H245.668L237.092 209H225.316ZM290.293 209.576C287.349 209.576 284.469 209.235 281.653 208.552C278.88 207.869 276.64 207.016 274.933 205.992L278.581 197.672C280.203 198.653 282.101 199.443 284.277 200.04C286.453 200.595 288.587 200.872 290.677 200.872C292.725 200.872 294.133 200.659 294.901 200.232C295.712 199.805 296.117 199.229 296.117 198.504C296.117 197.821 295.733 197.331 294.965 197.032C294.24 196.691 293.259 196.435 292.021 196.264C290.827 196.093 289.504 195.901 288.053 195.688C286.603 195.475 285.131 195.197 283.637 194.856C282.187 194.472 280.843 193.917 279.605 193.192C278.411 192.424 277.451 191.4 276.725 190.12C276 188.84 275.637 187.219 275.637 185.256C275.637 183.037 276.277 181.075 277.557 179.368C278.88 177.619 280.8 176.253 283.317 175.272C285.835 174.248 288.907 173.736 292.533 173.736C294.965 173.736 297.419 173.992 299.893 174.504C302.411 174.973 304.523 175.699 306.229 176.68L302.581 184.936C300.875 183.955 299.168 183.293 297.461 182.952C295.755 182.568 294.133 182.376 292.597 182.376C290.549 182.376 289.099 182.611 288.245 183.08C287.435 183.549 287.029 184.125 287.029 184.808C287.029 185.491 287.392 186.024 288.117 186.408C288.843 186.749 289.803 187.027 290.997 187.24C292.235 187.411 293.579 187.603 295.029 187.816C296.48 187.987 297.931 188.264 299.381 188.648C300.875 189.032 302.219 189.608 303.413 190.376C304.651 191.101 305.632 192.104 306.357 193.384C307.083 194.621 307.445 196.221 307.445 198.184C307.445 200.317 306.784 202.237 305.461 203.944C304.181 205.651 302.261 207.016 299.701 208.04C297.184 209.064 294.048 209.576 290.293 209.576ZM330.861 209.576C326.765 209.576 323.181 208.808 320.109 207.272C317.08 205.693 314.712 203.56 313.005 200.872C311.341 198.141 310.509 195.048 310.509 191.592C310.509 188.136 311.32 185.064 312.941 182.376C314.605 179.645 316.888 177.533 319.789 176.04C322.691 174.504 325.955 173.736 329.581 173.736C332.995 173.736 336.109 174.44 338.925 175.848C341.741 177.213 343.981 179.24 345.645 181.928C347.309 184.616 348.141 187.88 348.141 191.72C348.141 192.147 348.12 192.637 348.077 193.192C348.035 193.747 347.992 194.259 347.949 194.728H320.493V188.328H341.485L336.877 190.12C336.92 188.541 336.621 187.176 335.981 186.024C335.384 184.872 334.531 183.976 333.421 183.336C332.355 182.696 331.096 182.376 329.645 182.376C328.195 182.376 326.915 182.696 325.805 183.336C324.739 183.976 323.907 184.893 323.309 186.088C322.712 187.24 322.413 188.605 322.413 190.184V192.04C322.413 193.747 322.755 195.219 323.437 196.456C324.163 197.693 325.187 198.653 326.509 199.336C327.832 199.976 329.411 200.296 331.245 200.296C332.952 200.296 334.403 200.061 335.597 199.592C336.835 199.08 338.051 198.312 339.245 197.288L345.645 203.944C343.981 205.779 341.933 207.187 339.501 208.168C337.069 209.107 334.189 209.576 330.861 209.576ZM367.573 209L387.349 164.2H399.829L419.669 209H406.485L390.997 170.408H395.989L380.501 209H367.573ZM378.389 200.296L381.653 190.952H403.541L406.805 200.296H378.389ZM422.685 209V161.512H434.845V209H422.685ZM442.748 209V161.512H454.908V209H442.748ZM504.347 209.896C500.806 209.896 497.521 209.341 494.491 208.232C491.505 207.08 488.902 205.459 486.683 203.368C484.507 201.277 482.801 198.824 481.563 196.008C480.326 193.149 479.707 190.013 479.707 186.6C479.707 183.187 480.326 180.072 481.563 177.256C482.801 174.397 484.507 171.923 486.683 169.832C488.902 167.741 491.505 166.141 494.491 165.032C497.521 163.88 500.806 163.304 504.347 163.304C508.486 163.304 512.177 164.029 515.419 165.48C518.705 166.931 521.435 169.021 523.611 171.752L515.547 179.048C514.097 177.341 512.497 176.04 510.747 175.144C509.041 174.248 507.121 173.8 504.987 173.8C503.153 173.8 501.467 174.099 499.931 174.696C498.395 175.293 497.073 176.168 495.963 177.32C494.897 178.429 494.043 179.773 493.403 181.352C492.806 182.931 492.507 184.68 492.507 186.6C492.507 188.52 492.806 190.269 493.403 191.848C494.043 193.427 494.897 194.792 495.963 195.944C497.073 197.053 498.395 197.907 499.931 198.504C501.467 199.101 503.153 199.4 504.987 199.4C507.121 199.4 509.041 198.952 510.747 198.056C512.497 197.16 514.097 195.859 515.547 194.152L523.611 201.448C521.435 204.136 518.705 206.227 515.419 207.72C512.177 209.171 508.486 209.896 504.347 209.896ZM549.744 209V202.536L548.912 200.936V189.032C548.912 187.112 548.315 185.64 547.12 184.616C545.968 183.549 544.112 183.016 541.552 183.016C539.888 183.016 538.203 183.293 536.496 183.848C534.79 184.36 533.339 185.085 532.144 186.024L528.048 177.768C530.011 176.488 532.358 175.507 535.088 174.824C537.862 174.099 540.614 173.736 543.344 173.736C548.976 173.736 553.328 175.037 556.4 177.64C559.515 180.2 561.072 184.232 561.072 189.736V209H549.744ZM539.504 209.576C536.731 209.576 534.384 209.107 532.464 208.168C530.544 207.229 529.072 205.949 528.048 204.328C527.067 202.707 526.576 200.893 526.576 198.888C526.576 196.755 527.11 194.92 528.176 193.384C529.286 191.805 530.971 190.611 533.232 189.8C535.494 188.947 538.416 188.52 542 188.52H550.192V194.856H543.664C541.702 194.856 540.315 195.176 539.504 195.816C538.736 196.456 538.352 197.309 538.352 198.376C538.352 199.443 538.758 200.296 539.568 200.936C540.379 201.576 541.488 201.896 542.896 201.896C544.219 201.896 545.414 201.576 546.48 200.936C547.59 200.253 548.4 199.229 548.912 197.864L550.576 202.344C549.936 204.733 548.678 206.547 546.8 207.784C544.966 208.979 542.534 209.576 539.504 209.576ZM584.236 209.576C579.798 209.576 576.342 208.488 573.868 206.312C571.393 204.093 570.156 200.765 570.156 196.328V166.568H582.316V196.2C582.316 197.437 582.657 198.419 583.34 199.144C584.022 199.827 584.897 200.168 585.964 200.168C587.414 200.168 588.652 199.805 589.676 199.08L592.684 207.592C591.66 208.275 590.401 208.765 588.908 209.064C587.414 209.405 585.857 209.576 584.236 209.576ZM565.1 184.68V175.592H590.252V184.68H565.1ZM614.549 209.576C610.453 209.576 606.869 208.808 603.797 207.272C600.767 205.693 598.399 203.56 596.693 200.872C595.029 198.141 594.197 195.048 594.197 191.592C594.197 188.136 595.007 185.064 596.629 182.376C598.293 179.645 600.575 177.533 603.477 176.04C606.378 174.504 609.642 173.736 613.269 173.736C616.682 173.736 619.797 174.44 622.613 175.848C625.429 177.213 627.669 179.24 629.333 181.928C630.997 184.616 631.829 187.88 631.829 191.72C631.829 192.147 631.807 192.637 631.765 193.192C631.722 193.747 631.679 194.259 631.637 194.728H604.181V188.328H625.173L620.565 190.12C620.607 188.541 620.309 187.176 619.669 186.024C619.071 184.872 618.218 183.976 617.109 183.336C616.042 182.696 614.783 182.376 613.333 182.376C611.882 182.376 610.602 182.696 609.493 183.336C608.426 183.976 607.594 184.893 606.997 186.088C606.399 187.24 606.101 188.605 606.101 190.184V192.04C606.101 193.747 606.442 195.219 607.125 196.456C607.85 197.693 608.874 198.653 610.197 199.336C611.519 199.976 613.098 200.296 614.933 200.296C616.639 200.296 618.09 200.061 619.285 199.592C620.522 199.08 621.738 198.312 622.933 197.288L629.333 203.944C627.669 205.779 625.621 207.187 623.189 208.168C620.757 209.107 617.877 209.576 614.549 209.576ZM654.395 221.992C651.067 221.992 647.889 221.608 644.859 220.84C641.873 220.072 639.313 218.941 637.179 217.448L641.595 208.936C643.046 210.088 644.838 210.984 646.971 211.624C649.147 212.307 651.259 212.648 653.307 212.648C656.593 212.648 658.961 211.923 660.411 210.472C661.862 209.064 662.587 206.995 662.587 204.264V200.168L663.227 190.44L663.163 180.648V174.312H674.747V202.664C674.747 209.235 672.977 214.099 669.435 217.256C665.894 220.413 660.881 221.992 654.395 221.992ZM652.283 207.208C649.211 207.208 646.374 206.525 643.771 205.16C641.211 203.752 639.142 201.811 637.563 199.336C636.027 196.819 635.259 193.853 635.259 190.44C635.259 187.027 636.027 184.083 637.563 181.608C639.142 179.091 641.211 177.149 643.771 175.784C646.374 174.419 649.211 173.736 652.283 173.736C655.227 173.736 657.745 174.333 659.835 175.528C661.926 176.68 663.505 178.493 664.571 180.968C665.681 183.443 666.235 186.6 666.235 190.44C666.235 194.28 665.681 197.437 664.571 199.912C663.505 202.387 661.926 204.221 659.835 205.416C657.745 206.611 655.227 207.208 652.283 207.208ZM655.163 197.544C656.614 197.544 657.894 197.245 659.003 196.648C660.155 196.051 661.051 195.219 661.691 194.152C662.374 193.085 662.715 191.848 662.715 190.44C662.715 189.032 662.374 187.795 661.691 186.728C661.051 185.661 660.155 184.851 659.003 184.296C657.894 183.699 656.614 183.4 655.163 183.4C653.713 183.4 652.411 183.699 651.259 184.296C650.107 184.851 649.19 185.661 648.507 186.728C647.867 187.795 647.547 189.032 647.547 190.44C647.547 191.848 647.867 193.085 648.507 194.152C649.19 195.219 650.107 196.051 651.259 196.648C652.411 197.245 653.713 197.544 655.163 197.544ZM699.968 209.576C696.171 209.576 692.8 208.808 689.856 207.272C686.912 205.736 684.587 203.624 682.88 200.936C681.216 198.205 680.384 195.091 680.384 191.592C680.384 188.093 681.216 185 682.88 182.312C684.587 179.624 686.912 177.533 689.856 176.04C692.8 174.504 696.171 173.736 699.968 173.736C703.766 173.736 707.136 174.504 710.08 176.04C713.067 177.533 715.392 179.624 717.056 182.312C718.72 185 719.552 188.093 719.552 191.592C719.552 195.091 718.72 198.205 717.056 200.936C715.392 203.624 713.067 205.736 710.08 207.272C707.136 208.808 703.766 209.576 699.968 209.576ZM699.968 199.912C701.376 199.912 702.614 199.592 703.68 198.952C704.79 198.312 705.664 197.373 706.304 196.136C706.944 194.856 707.264 193.341 707.264 191.592C707.264 189.843 706.944 188.371 706.304 187.176C705.664 185.939 704.79 185 703.68 184.36C702.614 183.72 701.376 183.4 699.968 183.4C698.603 183.4 697.366 183.72 696.256 184.36C695.19 185 694.315 185.939 693.632 187.176C692.992 188.371 692.672 189.843 692.672 191.592C692.672 193.341 692.992 194.856 693.632 196.136C694.315 197.373 695.19 198.312 696.256 198.952C697.366 199.592 698.603 199.912 699.968 199.912ZM725.185 209V174.312H736.769V184.424L735.041 181.544C736.065 178.941 737.729 177 740.033 175.72C742.337 174.397 745.132 173.736 748.417 173.736V184.68C747.863 184.595 747.372 184.552 746.945 184.552C746.561 184.509 746.135 184.488 745.665 184.488C743.191 184.488 741.185 185.171 739.649 186.536C738.113 187.859 737.345 190.035 737.345 193.064V209H725.185ZM753.435 209V174.312H765.595V209H753.435ZM759.515 170.472C757.297 170.472 755.505 169.853 754.139 168.616C752.774 167.379 752.091 165.843 752.091 164.008C752.091 162.173 752.774 160.637 754.139 159.4C755.505 158.163 757.297 157.544 759.515 157.544C761.734 157.544 763.526 158.141 764.891 159.336C766.257 160.488 766.939 161.981 766.939 163.816C766.939 165.736 766.257 167.336 764.891 168.616C763.569 169.853 761.777 170.472 759.515 170.472ZM791.674 209.576C787.578 209.576 783.994 208.808 780.922 207.272C777.892 205.693 775.524 203.56 773.818 200.872C772.154 198.141 771.322 195.048 771.322 191.592C771.322 188.136 772.132 185.064 773.754 182.376C775.418 179.645 777.7 177.533 780.602 176.04C783.503 174.504 786.767 173.736 790.394 173.736C793.807 173.736 796.922 174.44 799.738 175.848C802.554 177.213 804.794 179.24 806.458 181.928C808.122 184.616 808.954 187.88 808.954 191.72C808.954 192.147 808.932 192.637 808.89 193.192C808.847 193.747 808.804 194.259 808.762 194.728H781.306V188.328H802.298L797.69 190.12C797.732 188.541 797.434 187.176 796.794 186.024C796.196 184.872 795.343 183.976 794.234 183.336C793.167 182.696 791.908 182.376 790.458 182.376C789.007 182.376 787.727 182.696 786.618 183.336C785.551 183.976 784.719 184.893 784.122 186.088C783.524 187.24 783.226 188.605 783.226 190.184V192.04C783.226 193.747 783.567 195.219 784.25 196.456C784.975 197.693 785.999 198.653 787.322 199.336C788.644 199.976 790.223 200.296 792.058 200.296C793.764 200.296 795.215 200.061 796.41 199.592C797.647 199.08 798.863 198.312 800.058 197.288L806.458 203.944C804.794 205.779 802.746 207.187 800.314 208.168C797.882 209.107 795.002 209.576 791.674 209.576ZM827.168 209.576C824.224 209.576 821.344 209.235 818.528 208.552C815.755 207.869 813.515 207.016 811.808 205.992L815.456 197.672C817.078 198.653 818.976 199.443 821.152 200.04C823.328 200.595 825.462 200.872 827.552 200.872C829.6 200.872 831.008 200.659 831.776 200.232C832.587 199.805 832.992 199.229 832.992 198.504C832.992 197.821 832.608 197.331 831.84 197.032C831.115 196.691 830.134 196.435 828.896 196.264C827.702 196.093 826.379 195.901 824.928 195.688C823.478 195.475 822.006 195.197 820.512 194.856C819.062 194.472 817.718 193.917 816.48 193.192C815.286 192.424 814.326 191.4 813.6 190.12C812.875 188.84 812.512 187.219 812.512 185.256C812.512 183.037 813.152 181.075 814.432 179.368C815.755 177.619 817.675 176.253 820.192 175.272C822.71 174.248 825.782 173.736 829.408 173.736C831.84 173.736 834.294 173.992 836.768 174.504C839.286 174.973 841.398 175.699 843.104 176.68L839.456 184.936C837.75 183.955 836.043 183.293 834.336 182.952C832.63 182.568 831.008 182.376 829.472 182.376C827.424 182.376 825.974 182.611 825.12 183.08C824.31 183.549 823.904 184.125 823.904 184.808C823.904 185.491 824.267 186.024 824.992 186.408C825.718 186.749 826.678 187.027 827.872 187.24C829.11 187.411 830.454 187.603 831.904 187.816C833.355 187.987 834.806 188.264 836.256 188.648C837.75 189.032 839.094 189.608 840.288 190.376C841.526 191.101 842.507 192.104 843.232 193.384C843.958 194.621 844.32 196.221 844.32 198.184C844.32 200.317 843.659 202.237 842.336 203.944C841.056 205.651 839.136 207.016 836.576 208.04C834.059 209.064 830.923 209.576 827.168 209.576Z" fill="white"/>
</g>
<defs>
<filter id="filter0_b_2438_191" x="10.457" y="33.6001" width="924.111" height="159.2" filterUnits="userSpaceOnUse" color-interpolation-filters="sRGB">
<feFlood flood-opacity="0" result="BackgroundImageFix"/>
<feGaussianBlur in="BackgroundImageFix" stdDeviation="2"/>
<feComposite in2="SourceAlpha" operator="in" result="effect1_backgroundBlur_2438_191"/>
<feBlend mode="normal" in="SourceGraphic" in2="effect1_backgroundBlur_2438_191" result="shape"/>
</filter>
<filter id="filter1_d_2438_191" x="89" y="150" width="762" height="80" filterUnits="userSpaceOnUse" color-interpolation-filters="sRGB">
<feFlood flood-opacity="0" result="BackgroundImageFix"/>
<feColorMatrix in="SourceAlpha" type="matrix" values="0 0 0 0 0 0 0 0 0 0 0 0 0 0 0 0 0 0 127 0" result="hardAlpha"/>
<feOffset dy="4"/>
<feGaussianBlur stdDeviation="2"/>
<feComposite in2="hardAlpha" operator="out"/>
<feColorMatrix type="matrix" values="0 0 0 0 0 0 0 0 0 0 0 0 0 0 0 0 0 0 0.25 0"/>
<feBlend mode="normal" in2="BackgroundImageFix" result="effect1_dropShadow_2438_191"/>
<feBlend mode="normal" in="SourceGraphic" in2="effect1_dropShadow_2438_191" result="shape"/>
</filter>
<linearGradient id="paint0_linear_2438_191" x1="-141.643" y1="40.6237" x2="-112.67" y2="320.381" gradientUnits="userSpaceOnUse">
<stop/>
<stop offset="1"/>
</linearGradient>
</defs>
</svg>
