<svg width="31" height="49" viewBox="0 0 31 49" fill="none" xmlns="http://www.w3.org/2000/svg">
<path d="M15.8409 48.6364C13.9167 48.6212 12.0379 48.2348 10.2045 47.4773C8.37121 46.7045 6.7197 45.4697 5.25 43.7727C3.7803 42.0606 2.61364 39.803 1.75 37C0.886364 34.197 0.454545 30.75 0.454545 26.6591C0.454545 22.8712 0.787879 19.4015 1.45455 16.25C2.12121 13.0985 3.12121 10.3712 4.45455 8.06818C5.78788 5.76515 7.45455 3.98485 9.45455 2.72727C11.4545 1.45454 13.7955 0.81818 16.4773 0.81818C18.9924 0.81818 21.2121 1.34091 23.1364 2.38636C25.0606 3.41667 26.6212 4.85606 27.8182 6.70454C29.0152 8.55303 29.7652 10.6818 30.0682 13.0909H25.8864C25.4621 10.6364 24.4545 8.61363 22.8636 7.02272C21.2727 5.43182 19.1439 4.63636 16.4773 4.63636C12.6591 4.63636 9.70455 6.40909 7.61364 9.95454C5.52273 13.4848 4.4697 18.5 4.45455 25H4.75C5.49242 23.6212 6.44697 22.4318 7.61364 21.4318C8.79545 20.4167 10.1364 19.6288 11.6364 19.0682C13.1364 18.4924 14.7121 18.2045 16.3636 18.2045C18.9545 18.2045 21.3258 18.8636 23.4773 20.1818C25.6288 21.4848 27.3485 23.2803 28.6364 25.5682C29.9242 27.8409 30.5682 30.4394 30.5682 33.3636C30.5682 36.1364 29.9545 38.6894 28.7273 41.0227C27.5152 43.3561 25.803 45.2121 23.5909 46.5909C21.3939 47.9697 18.8106 48.6515 15.8409 48.6364ZM15.8409 44.8182C17.8712 44.8182 19.6818 44.303 21.2727 43.2727C22.8788 42.2424 24.1439 40.8636 25.0682 39.1364C25.9924 37.3939 26.4545 35.4697 26.4545 33.3636C26.4545 31.2576 25.9924 29.3485 25.0682 27.6364C24.1439 25.9242 22.8788 24.5606 21.2727 23.5455C19.6818 22.5303 17.8712 22.0227 15.8409 22.0227C14.2955 22.0227 12.8561 22.3409 11.5227 22.9773C10.1894 23.5985 9.0303 24.4545 8.04545 25.5455C7.07576 26.6212 6.33333 27.8561 5.81818 29.25C5.31818 30.6439 5.12879 32.1061 5.25 33.6364C5.41667 35.7727 5.9697 37.6894 6.90909 39.3864C7.86364 41.0682 9.10606 42.3939 10.6364 43.3636C12.1818 44.3333 13.9167 44.8182 15.8409 44.8182Z" fill="white"/>
</svg>
