<svg width="30" height="48" viewBox="0 0 30 48" fill="none" xmlns="http://www.w3.org/2000/svg">
<path d="M0.181818 48V44.8864L15.3864 27.7955C17.3712 25.553 18.9697 23.6364 20.1818 22.0455C21.3939 20.4545 22.2727 18.9848 22.8182 17.6364C23.3788 16.2879 23.6591 14.8864 23.6591 13.4318C23.6591 11.6591 23.2424 10.1136 22.4091 8.79545C21.5909 7.46212 20.4621 6.42424 19.0227 5.68182C17.5833 4.93939 15.9621 4.56818 14.1591 4.56818C12.25 4.56818 10.5758 4.97727 9.13636 5.79545C7.71212 6.61363 6.60606 7.73485 5.81818 9.15909C5.0303 10.5833 4.63636 12.2197 4.63636 14.0682H0.568182C0.568182 11.4924 1.15909 9.21212 2.34091 7.22727C3.53788 5.22727 5.16667 3.65909 7.22727 2.52272C9.30303 1.38636 11.6515 0.81818 14.2727 0.81818C16.8636 0.81818 19.1667 1.37879 21.1818 2.5C23.197 3.60606 24.7803 5.11363 25.9318 7.02272C27.0833 8.93182 27.6591 11.0682 27.6591 13.4318C27.6591 15.1439 27.3561 16.803 26.75 18.4091C26.1591 20.0152 25.1364 21.803 23.6818 23.7727C22.2273 25.7424 20.2121 28.1515 17.6364 31L6.09091 43.8864V44.1818H29.1136V48H0.181818Z" fill="white"/>
</svg>
