<svg width="1205" height="229" viewBox="0 0 1205 229" fill="none" xmlns="http://www.w3.org/2000/svg">
<g opacity="0.4" filter="url(#filter0_d_2438_201)">
<path d="M32.3359 141V36H56.7859L114.686 105.9H103.136V36H132.236V141H107.786L49.8859 71.1H61.4359V141H32.3359ZM180.486 76.65H229.236V98.85H180.486V76.65ZM182.586 118.05H237.486V141H153.186V36H235.536V58.95H182.586V118.05ZM278.452 141L244.402 36H275.002L303.652 126.9H288.202L318.352 36H345.652L374.152 126.9H359.302L388.852 36H417.202L383.152 141H351.352L327.052 63.75H335.602L310.252 141H278.452ZM473.693 141V36H521.693C531.293 36 539.543 37.55 546.443 40.65C553.443 43.75 558.843 48.25 562.643 54.15C566.443 59.95 568.343 66.85 568.343 74.85C568.343 82.75 566.443 89.6 562.643 95.4C558.843 101.1 553.443 105.5 546.443 108.6C539.543 111.6 531.293 113.1 521.693 113.1H490.193L503.393 100.65V141H473.693ZM538.643 141L512.543 102.75H544.193L570.443 141H538.643ZM503.393 103.8L490.193 90.15H519.893C526.093 90.15 530.693 88.8 533.693 86.1C536.793 83.4 538.343 79.65 538.343 74.85C538.343 69.95 536.793 66.15 533.693 63.45C530.693 60.75 526.093 59.4 519.893 59.4H490.193L503.393 45.75V103.8ZM612.029 76.65H660.779V98.85H612.029V76.65ZM614.129 118.05H669.029V141H584.729V36H667.079V58.95H614.129V118.05ZM685.51 141V36H715.21V117.45H765.31V141H685.51ZM804.363 76.65H853.113V98.85H804.363V76.65ZM806.463 118.05H861.363V141H777.063V36H859.413V58.95H806.463V118.05ZM865.244 141L911.594 36H940.844L987.344 141H956.444L920.144 50.55H931.844L895.544 141H865.244ZM890.594 120.6L898.244 98.7H949.544L957.194 120.6H890.594ZM1032.66 143.1C1024.06 143.1 1015.76 142.05 1007.76 139.95C999.864 137.75 993.414 134.95 988.414 131.55L998.164 109.65C1002.86 112.65 1008.26 115.15 1014.36 117.15C1020.56 119.05 1026.71 120 1032.81 120C1036.91 120 1040.21 119.65 1042.71 118.95C1045.21 118.15 1047.01 117.15 1048.11 115.95C1049.31 114.65 1049.91 113.15 1049.91 111.45C1049.91 109.05 1048.81 107.15 1046.61 105.75C1044.41 104.35 1041.56 103.2 1038.06 102.3C1034.56 101.4 1030.66 100.5 1026.36 99.6C1022.16 98.7 1017.91 97.55 1013.61 96.15C1009.41 94.75 1005.56 92.95 1002.06 90.75C998.564 88.45 995.714 85.5 993.514 81.9C991.314 78.2 990.214 73.55 990.214 67.95C990.214 61.65 991.914 55.95 995.314 50.85C998.814 45.75 1004.01 41.65 1010.91 38.55C1017.81 35.45 1026.41 33.9 1036.71 33.9C1043.61 33.9 1050.36 34.7 1056.96 36.3C1063.66 37.8 1069.61 40.05 1074.81 43.05L1065.66 65.1C1060.66 62.4 1055.71 60.4 1050.81 59.1C1045.91 57.7 1041.16 57 1036.56 57C1032.46 57 1029.16 57.45 1026.66 58.35C1024.16 59.15 1022.36 60.25 1021.26 61.65C1020.16 63.05 1019.61 64.65 1019.61 66.45C1019.61 68.75 1020.66 70.6 1022.76 72C1024.96 73.3 1027.81 74.4 1031.31 75.3C1034.91 76.1 1038.81 76.95 1043.01 77.85C1047.31 78.75 1051.56 79.9 1055.76 81.3C1060.06 82.6 1063.96 84.4 1067.46 86.7C1070.96 88.9 1073.76 91.85 1075.86 95.55C1078.06 99.15 1079.16 103.7 1079.16 109.2C1079.16 115.3 1077.41 120.95 1073.91 126.15C1070.51 131.25 1065.36 135.35 1058.46 138.45C1051.66 141.55 1043.06 143.1 1032.66 143.1ZM1120.18 76.65H1168.93V98.85H1120.18V76.65ZM1122.28 118.05H1177.18V141H1092.88V36H1175.23V58.95H1122.28V118.05Z" fill="url(#paint0_linear_2438_201)"/>
</g>
<g filter="url(#filter1_d_2438_201)">
<path d="M288.669 165L313.389 109H328.989L353.789 165H337.309L317.949 116.76H324.189L304.829 165H288.669ZM302.189 154.12L306.269 142.44H333.629L337.709 154.12H302.189ZM358.28 165V109H374.12V152.44H400.84V165H358.28ZM407.108 165V109H422.948V152.44H449.668V165H407.108ZM507.457 166.12C502.977 166.12 498.844 165.4 495.057 163.96C491.271 162.52 487.964 160.493 485.137 157.88C482.364 155.213 480.204 152.12 478.657 148.6C477.111 145.08 476.337 141.213 476.337 137C476.337 132.787 477.111 128.92 478.657 125.4C480.204 121.88 482.364 118.813 485.137 116.2C487.964 113.533 491.271 111.48 495.057 110.04C498.844 108.6 502.977 107.88 507.457 107.88C511.991 107.88 516.124 108.6 519.857 110.04C523.644 111.48 526.924 113.533 529.697 116.2C532.471 118.813 534.631 121.88 536.177 125.4C537.777 128.92 538.577 132.787 538.577 137C538.577 141.213 537.777 145.107 536.177 148.68C534.631 152.2 532.471 155.267 529.697 157.88C526.924 160.493 523.644 162.52 519.857 163.96C516.124 165.4 511.991 166.12 507.457 166.12ZM507.457 153C509.591 153 511.564 152.627 513.377 151.88C515.244 151.133 516.844 150.067 518.177 148.68C519.564 147.24 520.631 145.533 521.377 143.56C522.177 141.587 522.577 139.4 522.577 137C522.577 134.547 522.177 132.36 521.377 130.44C520.631 128.467 519.564 126.787 518.177 125.4C516.844 123.96 515.244 122.867 513.377 122.12C511.564 121.373 509.591 121 507.457 121C505.324 121 503.324 121.373 501.457 122.12C499.644 122.867 498.044 123.96 496.657 125.4C495.324 126.787 494.257 128.467 493.457 130.44C492.711 132.36 492.337 134.547 492.337 137C492.337 139.4 492.711 141.587 493.457 143.56C494.257 145.533 495.324 147.24 496.657 148.68C498.044 150.067 499.644 151.133 501.457 151.88C503.324 152.627 505.324 153 507.457 153ZM561.593 133.56H587.433V145.8H561.593V133.56ZM562.713 165H546.873V109H590.793V121.24H562.713V165ZM649.483 166.12C645.056 166.12 640.949 165.427 637.163 164.04C633.376 162.6 630.096 160.573 627.323 157.96C624.603 155.347 622.469 152.28 620.923 148.76C619.376 145.187 618.603 141.267 618.603 137C618.603 132.733 619.376 128.84 620.923 125.32C622.469 121.747 624.629 118.653 627.403 116.04C630.176 113.427 633.456 111.427 637.243 110.04C641.083 108.6 645.269 107.88 649.803 107.88C655.083 107.88 659.803 108.76 663.963 110.52C668.123 112.28 671.563 114.813 674.283 118.12L664.203 127.24C662.283 125.16 660.203 123.613 657.963 122.6C655.776 121.533 653.323 121 650.603 121C648.203 121 646.016 121.373 644.043 122.12C642.069 122.867 640.389 123.96 639.003 125.4C637.616 126.787 636.523 128.467 635.723 130.44C634.976 132.36 634.603 134.547 634.603 137C634.603 139.347 634.976 141.507 635.723 143.48C636.523 145.453 637.616 147.16 639.003 148.6C640.389 149.987 642.043 151.08 643.963 151.88C645.936 152.627 648.096 153 650.443 153C652.789 153 655.083 152.627 657.323 151.88C659.563 151.08 661.829 149.747 664.123 147.88L673.003 159C669.803 161.293 666.096 163.053 661.883 164.28C657.669 165.507 653.536 166.12 649.483 166.12ZM659.003 156.92V135.8H673.003V159L659.003 156.92ZM676.325 165L701.045 109H716.645L741.445 165H724.965L705.605 116.76H711.845L692.485 165H676.325ZM689.845 154.12L693.925 142.44H721.285L725.365 154.12H689.845ZM745.936 165V109H758.976L782.176 147.08H775.296L797.856 109H810.896L811.056 165H796.496L796.336 131.16H798.816L781.936 159.48H774.896L757.536 131.16H760.576V165H745.936ZM836.824 130.68H862.824V142.52H836.824V130.68ZM837.944 152.76H867.224V165H822.264V109H866.184V121.24H837.944V152.76ZM895.694 166.12C891.107 166.12 886.681 165.56 882.414 164.44C878.201 163.267 874.761 161.773 872.094 159.96L877.294 148.28C879.801 149.88 882.681 151.213 885.934 152.28C889.241 153.293 892.521 153.8 895.774 153.8C897.961 153.8 899.721 153.613 901.054 153.24C902.387 152.813 903.347 152.28 903.934 151.64C904.574 150.947 904.894 150.147 904.894 149.24C904.894 147.96 904.307 146.947 903.134 146.2C901.961 145.453 900.441 144.84 898.574 144.36C896.707 143.88 894.627 143.4 892.334 142.92C890.094 142.44 887.827 141.827 885.534 141.08C883.294 140.333 881.241 139.373 879.374 138.2C877.507 136.973 875.987 135.4 874.814 133.48C873.641 131.507 873.054 129.027 873.054 126.04C873.054 122.68 873.961 119.64 875.774 116.92C877.641 114.2 880.414 112.013 884.094 110.36C887.774 108.707 892.361 107.88 897.854 107.88C901.534 107.88 905.134 108.307 908.654 109.16C912.227 109.96 915.401 111.16 918.174 112.76L913.294 124.52C910.627 123.08 907.987 122.013 905.374 121.32C902.761 120.573 900.227 120.2 897.774 120.2C895.587 120.2 893.827 120.44 892.494 120.92C891.161 121.347 890.201 121.933 889.614 122.68C889.027 123.427 888.734 124.28 888.734 125.24C888.734 126.467 889.294 127.453 890.414 128.2C891.587 128.893 893.107 129.48 894.974 129.96C896.894 130.387 898.974 130.84 901.214 131.32C903.507 131.8 905.774 132.413 908.014 133.16C910.307 133.853 912.387 134.813 914.254 136.04C916.121 137.213 917.614 138.787 918.734 140.76C919.907 142.68 920.494 145.107 920.494 148.04C920.494 151.293 919.561 154.307 917.694 157.08C915.881 159.8 913.134 161.987 909.454 163.64C905.827 165.293 901.241 166.12 895.694 166.12Z" fill="white"/>
</g>
<defs>
<filter id="filter0_d_2438_201" x="28.3359" y="33.9" width="1152.85" height="117.2" filterUnits="userSpaceOnUse" color-interpolation-filters="sRGB">
<feFlood flood-opacity="0" result="BackgroundImageFix"/>
<feColorMatrix in="SourceAlpha" type="matrix" values="0 0 0 0 0 0 0 0 0 0 0 0 0 0 0 0 0 0 127 0" result="hardAlpha"/>
<feOffset dy="4"/>
<feGaussianBlur stdDeviation="2"/>
<feComposite in2="hardAlpha" operator="out"/>
<feColorMatrix type="matrix" values="0 0 0 0 0 0 0 0 0 0 0 0 0 0 0 0 0 0 0.25 0"/>
<feBlend mode="normal" in2="BackgroundImageFix" result="effect1_dropShadow_2438_201"/>
<feBlend mode="normal" in="SourceGraphic" in2="effect1_dropShadow_2438_201" result="shape"/>
</filter>
<filter id="filter1_d_2438_201" x="284.669" y="100" width="639.825" height="77" filterUnits="userSpaceOnUse" color-interpolation-filters="sRGB">
<feFlood flood-opacity="0" result="BackgroundImageFix"/>
<feColorMatrix in="SourceAlpha" type="matrix" values="0 0 0 0 0 0 0 0 0 0 0 0 0 0 0 0 0 0 127 0" result="hardAlpha"/>
<feOffset dy="4"/>
<feGaussianBlur stdDeviation="2"/>
<feComposite in2="hardAlpha" operator="out"/>
<feColorMatrix type="matrix" values="0 0 0 0 0 0 0 0 0 0 0 0 0 0 0 0 0 0 0.25 0"/>
<feBlend mode="normal" in2="BackgroundImageFix" result="effect1_dropShadow_2438_201"/>
<feBlend mode="normal" in="SourceGraphic" in2="effect1_dropShadow_2438_201" result="shape"/>
</filter>
<linearGradient id="paint0_linear_2438_201" x1="0" y1="112.5" x2="1205" y2="112.5" gradientUnits="userSpaceOnUse">
<stop offset="0.9997" stop-color="white"/>
<stop offset="0.9998" stop-color="#CCCCCC"/>
<stop offset="1" stop-color="#999999"/>
</linearGradient>
</defs>
</svg>
