<svg width="23" height="22" viewBox="0 0 23 22" fill="none" xmlns="http://www.w3.org/2000/svg">
<path d="M12.033 21.011C14.0129 21.011 15.7843 20.6166 17.3474 19.8279C18.9105 19.0392 20.1349 17.9136 21.0206 16.4511C21.9064 14.9887 22.3492 13.3208 22.3492 11.4476C22.3492 10.6589 22.2798 10.0345 22.1408 9.57437H11.9809V12.4335H19.2231C19.0494 14.3068 18.2158 15.7692 16.7222 16.8208C15.4023 17.7082 13.8218 18.1518 11.9809 18.1518C10.5567 18.1518 9.2368 17.8232 8.02108 17.1659C6.80536 16.5086 5.83278 15.5967 5.10335 14.43C4.37391 13.2633 4.0092 11.9652 4.0092 10.5356C4.0092 9.10606 4.36523 7.80793 5.0773 6.64127C5.78936 5.4746 6.75326 4.55441 7.96898 3.8807C9.1847 3.207 10.5133 2.87014 11.9548 2.87014C13.3963 2.87014 14.7423 3.21521 15.9927 3.90535C16.618 4.23399 17.1043 4.57906 17.4516 4.94056L19.5357 2.87014L19.0668 2.42648C18.6152 2.06498 18.1116 1.73634 17.5558 1.44056C16.8264 1.01333 16.0275 0.684695 15.1591 0.454648C14.1171 0.158874 13.0229 0.0109863 11.8767 0.0109863C9.8273 0.0109863 7.93424 0.503944 6.1975 1.48986C4.53022 2.44291 3.19293 3.73282 2.18561 5.35958C1.1783 6.98634 0.674644 8.69526 0.674644 10.4863C0.674644 12.2774 1.16093 13.9863 2.13351 15.6131C3.10609 17.2399 4.42602 18.5298 6.09329 19.4828C7.89951 20.5016 9.8794 21.011 12.033 21.011Z" fill="white"/>
</svg>
