<svg width="31" height="49" viewBox="0 0 31 49" fill="none" xmlns="http://www.w3.org/2000/svg">
<path d="M15.2955 48.6364C12.4318 48.6364 9.87121 48.1212 7.61364 47.0909C5.35606 46.0455 3.56818 44.5985 2.25 42.75C0.931818 40.9015 0.234849 38.7727 0.159091 36.3636H4.45455C4.5303 38.0606 5.05303 39.5455 6.02273 40.8182C6.99242 42.0758 8.2803 43.0606 9.88636 43.7727C11.4924 44.4697 13.2803 44.8182 15.25 44.8182C17.4015 44.8182 19.2955 44.4167 20.9318 43.6136C22.5833 42.8106 23.8712 41.7121 24.7955 40.3182C25.7348 38.9091 26.2045 37.3182 26.2045 35.5455C26.2045 33.6667 25.7273 32.0076 24.7727 30.5682C23.8182 29.1288 22.447 28.0076 20.6591 27.2045C18.8864 26.4015 16.7652 26 14.2955 26H11.5682V22.1818H14.2955C16.3106 22.1818 18.0909 21.8182 19.6364 21.0909C21.197 20.3485 22.4242 19.3106 23.3182 17.9773C24.2121 16.6439 24.6591 15.0758 24.6591 13.2727C24.6591 11.5606 24.2727 10.053 23.5 8.75C22.7273 7.44697 21.6364 6.42424 20.2273 5.68182C18.8333 4.93939 17.2045 4.56818 15.3409 4.56818C13.5379 4.56818 11.8864 4.91667 10.3864 5.61364C8.88636 6.3106 7.67424 7.29545 6.75 8.56818C5.84091 9.84091 5.35606 11.3485 5.29545 13.0909H1.18182C1.24242 10.6667 1.90909 8.53788 3.18182 6.70454C4.4697 4.85606 6.17424 3.41667 8.29545 2.38636C10.4318 1.34091 12.7955 0.81818 15.3864 0.81818C18.1288 0.81818 20.5 1.37879 22.5 2.5C24.5 3.62121 26.0455 5.11363 27.1364 6.97727C28.2424 8.82576 28.7955 10.8636 28.7955 13.0909C28.7955 15.7424 28.0758 18.0152 26.6364 19.9091C25.197 21.7879 23.2576 23.0909 20.8182 23.8182V24.1136C23.7879 24.7045 26.1212 26.0227 27.8182 28.0682C29.5303 30.0985 30.3864 32.5909 30.3864 35.5455C30.3864 38.0303 29.7348 40.2652 28.4318 42.25C27.1288 44.2197 25.3409 45.7803 23.0682 46.9318C20.8106 48.0682 18.2197 48.6364 15.2955 48.6364Z" fill="white"/>
</svg>
