<svg width="50" height="28" viewBox="0 0 50 28" fill="none" xmlns="http://www.w3.org/2000/svg">
<path opacity="0.07957" d="M42.3409 0.47998H6.75C3.02208 0.47998 0 3.50206 0 7.22998V20.73C0 24.4579 3.02208 27.48 6.75 27.48H42.3409C46.0688 27.48 49.0909 24.4579 49.0909 20.73V7.22998C49.0909 3.50206 46.0688 0.47998 42.3409 0.47998Z" fill="black"/>
<path d="M41.7273 2.93457H7.36367C4.65247 2.93457 2.45459 5.13244 2.45459 7.84365V20.1164C2.45459 22.8276 4.65247 25.0255 7.36367 25.0255H41.7273C44.4385 25.0255 46.6364 22.8276 46.6364 20.1164V7.84365C46.6364 5.13244 44.4385 2.93457 41.7273 2.93457Z" fill="white"/>
<path d="M18.7266 10.9117H12.5547C12.5346 10.9117 12.5181 10.9314 12.5181 10.9553V11.5229C12.5181 11.5469 12.5346 11.5665 12.5552 11.5665H18.1756C18.6373 11.5665 19.0114 12.012 19.0114 12.5612C19.0114 13.1098 18.6373 13.5553 18.1756 13.5553H13.9049C13.1392 13.5553 12.5181 14.2935 12.5181 15.2047V17.0045C12.5181 17.0291 12.5346 17.0481 12.5552 17.0481H13.5834C13.6036 17.0481 13.6206 17.0291 13.6206 17.0045V15.2047C13.6206 14.6561 13.9946 14.2113 14.4558 14.2113H18.7266C19.4922 14.2113 20.1134 13.4724 20.1134 12.5612C20.1134 11.6499 19.4922 10.9117 18.7266 10.9117ZM35.1032 13.5559H30.4722C30.2531 13.5559 30.0757 13.3448 30.0757 13.0834V11.6107C30.0757 11.5867 30.0922 11.5665 30.1123 11.5665H36.3322C36.3523 11.5665 36.3693 11.5469 36.3693 11.5229V10.9553C36.3693 10.9308 36.3523 10.9117 36.3322 10.9117H29.0117C28.9911 10.9117 28.9746 10.9308 28.9746 10.9553V13.2166C28.9746 13.7651 29.3489 14.2113 29.8103 14.2113H34.5454C35.0511 14.2113 35.4708 14.704 35.4687 15.306C35.4672 15.9074 35.0573 16.3934 34.5521 16.3934H29.0117C28.9911 16.3934 28.9746 16.413 28.9746 16.4369V17.0045C28.9746 17.0285 28.9911 17.0481 29.0117 17.0481H35.1032C35.9131 17.0481 36.5699 16.2669 36.5699 15.3017C36.5699 14.3377 35.9131 13.5559 35.1032 13.5559ZM24.6686 10.9117C23.9582 10.9117 23.3827 11.6499 23.3827 12.5612V15.3986C23.3827 15.9479 23.0358 16.3934 22.6077 16.3934H20.1473C20.1287 16.3934 20.1134 16.413 20.1134 16.4369V17.0045C20.1134 17.0285 20.1287 17.0481 20.1473 17.0481H23.1186C23.8285 17.0481 24.4045 16.3099 24.4045 15.3986V12.5612C24.4045 12.012 24.7513 11.5665 25.1795 11.5665H27.6742C27.6929 11.5665 27.7087 11.5469 27.7087 11.5229V10.9553C27.7087 10.9308 27.6934 10.9117 27.6742 10.9117H24.6686Z" fill="black"/>
</svg>
