<svg width="75" height="55" viewBox="0 0 75 55" fill="none" xmlns="http://www.w3.org/2000/svg">
<rect x="0.5" y="0.5" width="74" height="54" rx="4.5" fill="black" fill-opacity="0.2" stroke="white"/>
<path d="M19.4324 32.112C18.6858 32.112 17.9718 32 17.2904 31.776C16.6091 31.5427 16.0724 31.244 15.6804 30.88L16.1984 29.788C16.5718 30.1147 17.0478 30.3853 17.6264 30.6C18.2051 30.8147 18.8071 30.922 19.4324 30.922C20.0018 30.922 20.4638 30.8567 20.8184 30.726C21.1731 30.5953 21.4344 30.418 21.6024 30.194C21.7704 29.9607 21.8544 29.6993 21.8544 29.41C21.8544 29.074 21.7424 28.8033 21.5184 28.598C21.3038 28.3927 21.0191 28.2293 20.6644 28.108C20.3191 27.9773 19.9364 27.8653 19.5164 27.772C19.0964 27.6787 18.6718 27.5713 18.2424 27.45C17.8224 27.3193 17.4351 27.156 17.0804 26.96C16.7351 26.764 16.4551 26.5027 16.2404 26.176C16.0258 25.84 15.9184 25.4107 15.9184 24.888C15.9184 24.384 16.0491 23.922 16.3104 23.502C16.5811 23.0727 16.9918 22.732 17.5424 22.48C18.1024 22.2187 18.8118 22.088 19.6704 22.088C20.2398 22.088 20.8044 22.1627 21.3644 22.312C21.9244 22.4613 22.4098 22.676 22.8204 22.956L22.3584 24.076C21.9384 23.796 21.4951 23.5953 21.0284 23.474C20.5618 23.3433 20.1091 23.278 19.6704 23.278C19.1198 23.278 18.6671 23.348 18.3124 23.488C17.9578 23.628 17.6964 23.8147 17.5284 24.048C17.3698 24.2813 17.2904 24.5427 17.2904 24.832C17.2904 25.1773 17.3978 25.4527 17.6124 25.658C17.8364 25.8633 18.1211 26.0267 18.4664 26.148C18.8211 26.2693 19.2084 26.3813 19.6284 26.484C20.0484 26.5773 20.4684 26.6847 20.8884 26.806C21.3178 26.9273 21.7051 27.086 22.0504 27.282C22.4051 27.478 22.6898 27.7393 22.9044 28.066C23.1191 28.3927 23.2264 28.8127 23.2264 29.326C23.2264 29.8207 23.0911 30.2827 22.8204 30.712C22.5498 31.132 22.1298 31.4727 21.5604 31.734C21.0004 31.986 20.2911 32.112 19.4324 32.112ZM28.3798 32.084C27.5864 32.084 26.8864 31.9207 26.2798 31.594C25.6824 31.2673 25.2158 30.8193 24.8798 30.25C24.5531 29.6807 24.3898 29.0273 24.3898 28.29C24.3898 27.5527 24.5484 26.8993 24.8658 26.33C25.1924 25.7607 25.6358 25.3173 26.1958 25C26.7651 24.6733 27.4044 24.51 28.1138 24.51C28.8324 24.51 29.4671 24.6687 30.0178 24.986C30.5684 25.3033 30.9978 25.7513 31.3058 26.33C31.6231 26.8993 31.7818 27.5667 31.7818 28.332C31.7818 28.388 31.7771 28.4533 31.7678 28.528C31.7678 28.6027 31.7631 28.6727 31.7538 28.738H25.4398V27.772H31.0538L30.5078 28.108C30.5171 27.632 30.4191 27.2073 30.2138 26.834C30.0084 26.4607 29.7238 26.1713 29.3598 25.966C29.0051 25.7513 28.5898 25.644 28.1138 25.644C27.6471 25.644 27.2318 25.7513 26.8678 25.966C26.5038 26.1713 26.2191 26.4653 26.0138 26.848C25.8084 27.2213 25.7058 27.6507 25.7058 28.136V28.36C25.7058 28.8547 25.8178 29.298 26.0418 29.69C26.2751 30.0727 26.5971 30.3713 27.0078 30.586C27.4184 30.8007 27.8898 30.908 28.4218 30.908C28.8604 30.908 29.2571 30.8333 29.6118 30.684C29.9758 30.5347 30.2931 30.3107 30.5638 30.012L31.3058 30.88C30.9698 31.272 30.5498 31.5707 30.0458 31.776C29.5511 31.9813 28.9958 32.084 28.3798 32.084ZM36.952 32.084C36.1587 32.084 35.4587 31.9207 34.852 31.594C34.2547 31.2673 33.788 30.8193 33.452 30.25C33.1254 29.6807 32.962 29.0273 32.962 28.29C32.962 27.5527 33.1207 26.8993 33.438 26.33C33.7647 25.7607 34.208 25.3173 34.768 25C35.3374 24.6733 35.9767 24.51 36.686 24.51C37.4047 24.51 38.0394 24.6687 38.59 24.986C39.1407 25.3033 39.57 25.7513 39.878 26.33C40.1954 26.8993 40.354 27.5667 40.354 28.332C40.354 28.388 40.3494 28.4533 40.34 28.528C40.34 28.6027 40.3354 28.6727 40.326 28.738H34.012V27.772H39.626L39.08 28.108C39.0894 27.632 38.9914 27.2073 38.786 26.834C38.5807 26.4607 38.296 26.1713 37.932 25.966C37.5774 25.7513 37.162 25.644 36.686 25.644C36.2194 25.644 35.804 25.7513 35.44 25.966C35.076 26.1713 34.7914 26.4653 34.586 26.848C34.3807 27.2213 34.278 27.6507 34.278 28.136V28.36C34.278 28.8547 34.39 29.298 34.614 29.69C34.8474 30.0727 35.1694 30.3713 35.58 30.586C35.9907 30.8007 36.462 30.908 36.994 30.908C37.4327 30.908 37.8294 30.8333 38.184 30.684C38.548 30.5347 38.8654 30.3107 39.136 30.012L39.878 30.88C39.542 31.272 39.122 31.5707 38.618 31.776C38.1234 31.9813 37.568 32.084 36.952 32.084ZM50.5861 32V30.432L50.5161 30.138V27.464C50.5161 26.8947 50.3481 26.456 50.0121 26.148C49.6854 25.8307 49.1907 25.672 48.5281 25.672C48.0894 25.672 47.6601 25.7467 47.2401 25.896C46.8201 26.036 46.4654 26.2273 46.1761 26.47L45.6161 25.462C45.9987 25.154 46.4561 24.9207 46.9881 24.762C47.5294 24.594 48.0941 24.51 48.6821 24.51C49.6994 24.51 50.4834 24.7573 51.0341 25.252C51.5847 25.7467 51.8601 26.5027 51.8601 27.52V32H50.5861ZM48.1501 32.084C47.5994 32.084 47.1141 31.9907 46.6941 31.804C46.2834 31.6173 45.9661 31.3607 45.7421 31.034C45.5181 30.698 45.4061 30.32 45.4061 29.9C45.4061 29.4987 45.4994 29.1347 45.6861 28.808C45.8821 28.4813 46.1947 28.22 46.6241 28.024C47.0627 27.828 47.6507 27.73 48.3881 27.73H50.7401V28.696H48.4441C47.7721 28.696 47.3194 28.808 47.0861 29.032C46.8527 29.256 46.7361 29.5267 46.7361 29.844C46.7361 30.208 46.8807 30.502 47.1701 30.726C47.4594 30.9407 47.8607 31.048 48.3741 31.048C48.8781 31.048 49.3167 30.936 49.6901 30.712C50.0727 30.488 50.3481 30.1613 50.5161 29.732L50.7821 30.656C50.6047 31.0947 50.2921 31.4447 49.8441 31.706C49.3961 31.958 48.8314 32.084 48.1501 32.084ZM54.3472 32V21.612H55.6912V32H54.3472ZM58.2574 32V21.612H59.6014V32H58.2574Z" fill="#FEFCFC"/>
</svg>
