<svg width="1175" height="244" viewBox="0 0 1175 244" fill="none" xmlns="http://www.w3.org/2000/svg">
<g style="mix-blend-mode:plus-lighter" opacity="0.4">
<path d="M72.0227 194V85.4H29.0227V54H154.423V85.4H111.623V194H72.0227ZM169.176 194V54H233.176C245.976 54 256.976 56.0667 266.176 60.2C275.509 64.3333 282.709 70.3333 287.776 78.2C292.842 85.9333 295.376 95.1333 295.376 105.8C295.376 116.333 292.842 125.467 287.776 133.2C282.709 140.8 275.509 146.667 266.176 150.8C256.976 154.8 245.976 156.8 233.176 156.8H191.176L208.776 140.2V194H169.176ZM255.776 194L220.976 143H263.176L298.176 194H255.776ZM208.776 144.4L191.176 126.2H230.776C239.042 126.2 245.176 124.4 249.176 120.8C253.309 117.2 255.376 112.2 255.376 105.8C255.376 99.2667 253.309 94.2 249.176 90.6C245.176 87 239.042 85.2 230.776 85.2H191.176L208.776 67V144.4ZM353.623 108.2H418.623V137.8H353.623V108.2ZM356.423 163.4H429.623V194H317.223V54H427.023V84.6H356.423V163.4ZM451.598 194V54H484.198L561.398 147.2H545.998V54H584.798V194H552.198L474.998 100.8H490.398V194H451.598ZM612.73 194V54H678.93C694.397 54 707.997 56.8667 719.73 62.6C731.464 68.3333 740.597 76.4 747.13 86.8C753.797 97.2 757.13 109.6 757.13 124C757.13 138.267 753.797 150.667 747.13 161.2C740.597 171.6 731.464 179.667 719.73 185.4C707.997 191.133 694.397 194 678.93 194H612.73ZM652.33 162.4H677.33C685.33 162.4 692.264 160.933 698.13 158C704.13 154.933 708.797 150.533 712.13 144.8C715.464 138.933 717.13 132 717.13 124C717.13 115.867 715.464 108.933 712.13 103.2C708.797 97.4667 704.13 93.1333 698.13 90.2C692.264 87.1333 685.33 85.6 677.33 85.6H652.33V162.4ZM777.965 194V54H817.565V194H777.965ZM845.738 194V54H878.338L955.538 147.2H940.138V54H978.938V194H946.338L869.138 100.8H884.538V194H845.738ZM1076.87 196.8C1065.8 196.8 1055.54 195.067 1046.07 191.6C1036.6 188 1028.4 182.933 1021.47 176.4C1014.67 169.867 1009.34 162.2 1005.47 153.4C1001.6 144.467 999.671 134.667 999.671 124C999.671 113.333 1001.6 103.6 1005.47 94.8C1009.34 85.8667 1014.74 78.1333 1021.67 71.6C1028.6 65.0667 1036.8 60.0667 1046.27 56.6C1055.87 53 1066.34 51.2 1077.67 51.2C1090.87 51.2 1102.67 53.4 1113.07 57.8C1123.47 62.2 1132.07 68.5333 1138.87 76.8L1113.67 99.6C1108.87 94.4 1103.67 90.5333 1098.07 88C1092.6 85.3333 1086.47 84 1079.67 84C1073.67 84 1068.2 84.9333 1063.27 86.8C1058.34 88.6667 1054.14 91.4 1050.67 95C1047.2 98.4667 1044.47 102.667 1042.47 107.6C1040.6 112.4 1039.67 117.867 1039.67 124C1039.67 129.867 1040.6 135.267 1042.47 140.2C1044.47 145.133 1047.2 149.4 1050.67 153C1054.14 156.467 1058.27 159.2 1063.07 161.2C1068 163.067 1073.4 164 1079.27 164C1085.14 164 1090.87 163.067 1096.47 161.2C1102.07 159.2 1107.74 155.867 1113.47 151.2L1135.67 179C1127.67 184.733 1118.4 189.133 1107.87 192.2C1097.34 195.267 1087 196.8 1076.87 196.8ZM1100.67 173.8V121H1135.67V179L1100.67 173.8Z" fill="url(#paint0_linear_2437_190)"/>
</g>
<path d="M287.637 223V179.56H270.437V167H320.597V179.56H303.477V223H287.637ZM343.163 223.72C338.417 223.72 334.203 222.76 330.523 220.84C326.843 218.92 323.937 216.28 321.803 212.92C319.723 209.507 318.683 205.613 318.683 201.24C318.683 196.867 319.723 193 321.803 189.64C323.937 186.28 326.843 183.667 330.523 181.8C334.203 179.88 338.417 178.92 343.163 178.92C347.91 178.92 352.123 179.88 355.803 181.8C359.537 183.667 362.443 186.28 364.523 189.64C366.603 193 367.643 196.867 367.643 201.24C367.643 205.613 366.603 209.507 364.523 212.92C362.443 216.28 359.537 218.92 355.803 220.84C352.123 222.76 347.91 223.72 343.163 223.72ZM343.163 211.64C344.923 211.64 346.47 211.24 347.803 210.44C349.19 209.64 350.283 208.467 351.083 206.92C351.883 205.32 352.283 203.427 352.283 201.24C352.283 199.053 351.883 197.213 351.083 195.72C350.283 194.173 349.19 193 347.803 192.2C346.47 191.4 344.923 191 343.163 191C341.457 191 339.91 191.4 338.523 192.2C337.19 193 336.097 194.173 335.243 195.72C334.443 197.213 334.043 199.053 334.043 201.24C334.043 203.427 334.443 205.32 335.243 206.92C336.097 208.467 337.19 209.64 338.523 210.44C339.91 211.24 341.457 211.64 343.163 211.64ZM401.965 223.72C398.285 223.72 395.138 222.92 392.525 221.32C389.911 219.667 387.911 217.213 386.525 213.96C385.191 210.653 384.525 206.44 384.525 201.32C384.525 196.147 385.165 191.933 386.445 188.68C387.725 185.373 389.645 182.92 392.205 181.32C394.818 179.72 398.071 178.92 401.965 178.92C405.911 178.92 409.485 179.853 412.685 181.72C415.938 183.533 418.498 186.12 420.365 189.48C422.285 192.787 423.245 196.733 423.245 201.32C423.245 205.907 422.285 209.88 420.365 213.24C418.498 216.6 415.938 219.187 412.685 221C409.485 222.813 405.911 223.72 401.965 223.72ZM374.685 238.52V179.64H389.165V187L389.085 201.32L389.885 215.72V238.52H374.685ZM398.765 211.64C400.471 211.64 401.991 211.24 403.325 210.44C404.711 209.64 405.805 208.467 406.605 206.92C407.458 205.373 407.885 203.507 407.885 201.32C407.885 199.133 407.458 197.267 406.605 195.72C405.805 194.173 404.711 193 403.325 192.2C401.991 191.4 400.471 191 398.765 191C397.058 191 395.511 191.4 394.125 192.2C392.791 193 391.698 194.173 390.845 195.72C390.045 197.267 389.645 199.133 389.645 201.32C389.645 203.507 390.045 205.373 390.845 206.92C391.698 208.467 392.791 209.64 394.125 210.44C395.511 211.24 397.058 211.64 398.765 211.64ZM482.231 224.12C477.804 224.12 473.698 223.427 469.911 222.04C466.178 220.6 462.924 218.573 460.151 215.96C457.431 213.347 455.298 210.28 453.751 206.76C452.204 203.187 451.431 199.267 451.431 195C451.431 190.733 452.204 186.84 453.751 183.32C455.298 179.747 457.431 176.653 460.151 174.04C462.924 171.427 466.178 169.427 469.911 168.04C473.698 166.6 477.804 165.88 482.231 165.88C487.404 165.88 492.018 166.787 496.071 168.6C500.178 170.413 503.591 173.027 506.311 176.44L496.231 185.56C494.418 183.427 492.418 181.8 490.231 180.68C488.098 179.56 485.698 179 483.031 179C480.738 179 478.631 179.373 476.711 180.12C474.791 180.867 473.138 181.96 471.751 183.4C470.418 184.787 469.351 186.467 468.551 188.44C467.804 190.413 467.431 192.6 467.431 195C467.431 197.4 467.804 199.587 468.551 201.56C469.351 203.533 470.418 205.24 471.751 206.68C473.138 208.067 474.791 209.133 476.711 209.88C478.631 210.627 480.738 211 483.031 211C485.698 211 488.098 210.44 490.231 209.32C492.418 208.2 494.418 206.573 496.231 204.44L506.311 213.56C503.591 216.92 500.178 219.533 496.071 221.4C492.018 223.213 487.404 224.12 482.231 224.12ZM533.007 223.72C528.261 223.72 524.047 222.76 520.367 220.84C516.687 218.92 513.781 216.28 511.647 212.92C509.567 209.507 508.527 205.613 508.527 201.24C508.527 196.867 509.567 193 511.647 189.64C513.781 186.28 516.687 183.667 520.367 181.8C524.047 179.88 528.261 178.92 533.007 178.92C537.754 178.92 541.967 179.88 545.647 181.8C549.381 183.667 552.287 186.28 554.367 189.64C556.447 193 557.487 196.867 557.487 201.24C557.487 205.613 556.447 209.507 554.367 212.92C552.287 216.28 549.381 218.92 545.647 220.84C541.967 222.76 537.754 223.72 533.007 223.72ZM533.007 211.64C534.767 211.64 536.314 211.24 537.647 210.44C539.034 209.64 540.127 208.467 540.927 206.92C541.727 205.32 542.127 203.427 542.127 201.24C542.127 199.053 541.727 197.213 540.927 195.72C540.127 194.173 539.034 193 537.647 192.2C536.314 191.4 534.767 191 533.007 191C531.301 191 529.754 191.4 528.367 192.2C527.034 193 525.941 194.173 525.087 195.72C524.287 197.213 523.887 199.053 523.887 201.24C523.887 203.427 524.287 205.32 525.087 206.92C525.941 208.467 527.034 209.64 528.367 210.44C529.754 211.24 531.301 211.64 533.007 211.64ZM564.528 223V163.64H579.728V223H564.528ZM589.607 223V163.64H604.807V223H589.607ZM637.405 223.72C632.285 223.72 627.805 222.76 623.965 220.84C620.178 218.867 617.218 216.2 615.085 212.84C613.005 209.427 611.965 205.56 611.965 201.24C611.965 196.92 612.978 193.08 615.005 189.72C617.085 186.307 619.938 183.667 623.565 181.8C627.191 179.88 631.271 178.92 635.805 178.92C640.071 178.92 643.965 179.8 647.485 181.56C651.005 183.267 653.805 185.8 655.885 189.16C657.965 192.52 659.005 196.6 659.005 201.4C659.005 201.933 658.978 202.547 658.925 203.24C658.871 203.933 658.818 204.573 658.765 205.16H624.445V197.16H650.685L644.925 199.4C644.978 197.427 644.605 195.72 643.805 194.28C643.058 192.84 641.991 191.72 640.605 190.92C639.271 190.12 637.698 189.72 635.885 189.72C634.071 189.72 632.471 190.12 631.085 190.92C629.751 191.72 628.711 192.867 627.965 194.36C627.218 195.8 626.845 197.507 626.845 199.48V201.8C626.845 203.933 627.271 205.773 628.125 207.32C629.031 208.867 630.311 210.067 631.965 210.92C633.618 211.72 635.591 212.12 637.885 212.12C640.018 212.12 641.831 211.827 643.325 211.24C644.871 210.6 646.391 209.64 647.885 208.36L655.885 216.68C653.805 218.973 651.245 220.733 648.205 221.96C645.165 223.133 641.565 223.72 637.405 223.72ZM688.173 223.72C683.373 223.72 679.079 222.76 675.293 220.84C671.559 218.92 668.626 216.28 666.493 212.92C664.359 209.507 663.293 205.613 663.293 201.24C663.293 196.867 664.359 193 666.493 189.64C668.626 186.28 671.559 183.667 675.293 181.8C679.079 179.88 683.373 178.92 688.173 178.92C693.079 178.92 697.319 179.96 700.893 182.04C704.466 184.12 706.999 187.053 708.493 190.84L696.733 196.84C695.719 194.813 694.466 193.347 692.973 192.44C691.479 191.48 689.853 191 688.093 191C686.333 191 684.733 191.4 683.293 192.2C681.853 193 680.706 194.173 679.853 195.72C679.053 197.213 678.653 199.053 678.653 201.24C678.653 203.48 679.053 205.373 679.853 206.92C680.706 208.467 681.853 209.64 683.293 210.44C684.733 211.24 686.333 211.64 688.093 211.64C689.853 211.64 691.479 211.187 692.973 210.28C694.466 209.32 695.719 207.827 696.733 205.8L708.493 211.8C706.999 215.587 704.466 218.52 700.893 220.6C697.319 222.68 693.079 223.72 688.173 223.72ZM734.279 223.72C728.732 223.72 724.412 222.36 721.319 219.64C718.226 216.867 716.679 212.707 716.679 207.16V169.96H731.879V207C731.879 208.547 732.306 209.773 733.159 210.68C734.012 211.533 735.106 211.96 736.439 211.96C738.252 211.96 739.799 211.507 741.079 210.6L744.839 221.24C743.559 222.093 741.986 222.707 740.119 223.08C738.252 223.507 736.306 223.72 734.279 223.72ZM710.359 192.6V181.24H741.799V192.6H710.359ZM750.7 223V179.64H765.9V223H750.7ZM758.3 174.84C755.527 174.84 753.287 174.067 751.58 172.52C749.874 170.973 749.02 169.053 749.02 166.76C749.02 164.467 749.874 162.547 751.58 161C753.287 159.453 755.527 158.68 758.3 158.68C761.074 158.68 763.314 159.427 765.02 160.92C766.727 162.36 767.58 164.227 767.58 166.52C767.58 168.92 766.727 170.92 765.02 172.52C763.367 174.067 761.127 174.84 758.3 174.84ZM797.538 223.72C792.792 223.72 788.578 222.76 784.898 220.84C781.218 218.92 778.312 216.28 776.178 212.92C774.098 209.507 773.058 205.613 773.058 201.24C773.058 196.867 774.098 193 776.178 189.64C778.312 186.28 781.218 183.667 784.898 181.8C788.578 179.88 792.792 178.92 797.538 178.92C802.285 178.92 806.498 179.88 810.178 181.8C813.912 183.667 816.818 186.28 818.898 189.64C820.978 193 822.018 196.867 822.018 201.24C822.018 205.613 820.978 209.507 818.898 212.92C816.818 216.28 813.912 218.92 810.178 220.84C806.498 222.76 802.285 223.72 797.538 223.72ZM797.538 211.64C799.298 211.64 800.845 211.24 802.178 210.44C803.565 209.64 804.658 208.467 805.458 206.92C806.258 205.32 806.658 203.427 806.658 201.24C806.658 199.053 806.258 197.213 805.458 195.72C804.658 194.173 803.565 193 802.178 192.2C800.845 191.4 799.298 191 797.538 191C795.832 191 794.285 191.4 792.898 192.2C791.565 193 790.472 194.173 789.618 195.72C788.818 197.213 788.418 199.053 788.418 201.24C788.418 203.427 788.818 205.32 789.618 206.92C790.472 208.467 791.565 209.64 792.898 210.44C794.285 211.24 795.832 211.64 797.538 211.64ZM857.3 178.92C860.66 178.92 863.7 179.613 866.42 181C869.14 182.333 871.273 184.413 872.82 187.24C874.42 190.067 875.22 193.72 875.22 198.2V223H860.02V200.68C860.02 197.587 859.38 195.347 858.1 193.96C856.873 192.52 855.14 191.8 852.9 191.8C851.3 191.8 849.833 192.173 848.5 192.92C847.166 193.613 846.126 194.707 845.38 196.2C844.633 197.693 844.26 199.64 844.26 202.04V223H829.06V179.64H843.54V191.96L840.74 188.36C842.393 185.213 844.66 182.867 847.54 181.32C850.42 179.72 853.673 178.92 857.3 178.92Z" fill="white"/>
<defs>
<linearGradient id="paint0_linear_2437_190" x1="-281.081" y1="64.8538" x2="-246.95" y2="374.037" gradientUnits="userSpaceOnUse">
<stop stop-color="#B2EBF2"/>
<stop offset="0.653477" stop-color="#D1C4E9"/>
<stop offset="1" stop-color="#F8BBD0"/>
</linearGradient>
</defs>
</svg>
