<svg width="22" height="17" viewBox="0 0 22 17" fill="none" xmlns="http://www.w3.org/2000/svg">
<path fill-rule="evenodd" clip-rule="evenodd" d="M21.6373 2.39583C20.8674 2.71667 20.0445 2.93333 19.1773 3.03333C20.0622 2.53333 20.7435 1.74167 21.0621 0.8C20.2347 1.2625 19.3189 1.6 18.3411 1.77917C17.558 0.991667 16.4431 0.5 15.2131 0.5C12.8461 0.5 10.9304 2.30833 10.9304 4.5375C10.9304 4.85417 10.9658 5.1625 11.041 5.45833C7.47941 5.29167 4.32045 3.68333 2.21004 1.2375C1.84282 1.83333 1.63046 2.52917 1.63046 3.26667C1.63046 4.66667 2.39144 5.90417 3.54177 6.62917C2.83387 6.6125 2.17022 6.42917 1.59506 6.125C1.59506 6.14167 1.59506 6.15833 1.59506 6.175C1.59506 8.13333 3.07279 9.7625 5.03276 10.1333C4.67439 10.225 4.2939 10.275 3.90456 10.275C3.63025 10.275 3.36037 10.25 3.09933 10.2C3.64352 11.8042 5.22743 12.9708 7.10335 13.0042C5.63889 14.0875 3.78953 14.7333 1.78088 14.7333C1.43579 14.7333 1.09511 14.7125 0.758865 14.675C2.64805 15.8333 4.90003 16.5 7.31571 16.5C15.2043 16.5 19.5136 10.3458 19.5136 5.00833C19.5136 4.83333 19.5092 4.65833 19.5003 4.4875C20.3365 3.91667 21.0621 3.20833 21.6373 2.39583Z" fill="white"/>
</svg>
